<?xml version="1.0" encoding="UTF-8"?>
<svg id="Laag_1" xmlns="http://www.w3.org/2000/svg" version="1.1" viewBox="0 0 440.7 144.9">
  <!-- Generator: Adobe Illustrator 29.4.0, SVG Export Plug-In . SVG Version: 2.1.0 Build 152)  -->
  <defs>
    <style>
      .st0 {
        fill: #04be64;
      }
    </style>
  </defs>
  <path class="st0" d="M78.4,94.2v-42.9h23.7v8.8h-13v8h13v8.8h-13v8.5h13v8.8h-23.7Z"/>
  <path class="st0" d="M120.3,87c-2.2,0-4-.8-5.4-2.3-1.4-1.6-2.1-3.5-2.1-5.9s.7-4.3,2.1-5.8c1.4-1.5,3.2-2.3,5.4-2.3s2.5.3,3.6.9c0-.2,0-.4.2-.5,0-.1.9-3.3,3.6-7.2-2.2-1-4.6-1.5-7.3-1.5s-6.1.7-8.6,2.1c-2.5,1.4-4.4,3.3-5.9,5.8-1.4,2.5-2.1,5.3-2.1,8.6s.7,6.1,2.1,8.6c1.4,2.5,3.4,4.4,5.9,5.9,2.5,1.4,5.4,2.1,8.6,2.1s5.6-.6,7.9-1.8c-2.1-2.1-3.7-4.6-4.6-7.3-1,.5-2.1.7-3.3.7Z"/>
  <path class="st0" d="M155.1,101.1s0,0,0,0c0,0,0,0,0,0-.2-.2-.3-.4-.5-.6-2.5-3.1-3.2-5.2-3.2-5.2h0c10.2-10.9,10.2-19.3,6.6-25.4-3-5.2-8.6-8.8-12.9-10.9-3.3-1.6-5.8-2.4-5.8-2.4,0,0,0,0,0,0,0,0,0,0,0,0-1.4.8-2.7,1.7-3.8,2.6-.5.4-1,.9-1.5,1.3-.1.1-.2.2-.4.4-.4.4-.8.8-1.1,1.1,0,0-.1.1-.2.2-3.9,4.3-5.4,8.7-5.6,9.5,0,0,0,0,0,0,0,0,0,.1,0,.1-.2.5-.3,1.1-.4,1.6h0c-1.1,4.2-1.1,7.7-.5,10.6.2,1.1.6,2,1,2.9,0,0,0,0,0,.1.3.6.6,1.2,1,1.8,0,0,0,.1.1.2.3.5.7,1,1.1,1.5,0,0,.1.2.2.3.8.9,1.6,1.7,2.5,2.4,0,0,.1,0,.2.1.3.3.7.5,1,.7.2.1.3.2.5.3.3.2.5.4.8.5.5.3.9.5,1.4.7,3.1,1.5,6.5,2.3,8.1,2.5,0,0,0,0,0,0,0,0,0,0,0,0-3.9-5.5-5.6-11.6-6.3-17-.9-7.6.3-13.8.5-14.8.4,5.4.6,8.7,2.3,13.9,1.8,5.5,4.5,11.8,7.6,17.1.8,1.3,1.6,2.6,2.4,3.7.8,1.2,2.3,3.2,3.3,4.1.4.3.8.5,1.2.5,1.2,0,2.3-1,1.8-2.4-.2-.5-.8-1.3-1.4-2.1Z"/>
  <path class="st0" d="M172.6,51.3v16.7h10.8v-16.7h10.8v42.9h-10.8v-16.6h-10.8v16.6h-10.7v-42.9h10.7Z"/>
  <path class="st0" d="M214.6,92.1h-.2c-.7.9-1.7,1.7-3,2.2-1.3.5-2.7.8-4.3.8s-4-.5-5.7-1.4c-1.7-.9-3-2.2-3.9-3.8-1-1.6-1.4-3.5-1.4-5.6,0-3.2,1.1-5.8,3.2-7.8,2.1-1.9,4.9-2.9,8.3-2.9s4.8.6,6.5,1.7v-1.2c0-1.4-.5-2.4-1.4-3.1-.9-.6-2.4-.9-4.6-.9s-2.8.1-4.3.3c-1.5.2-2.7.5-3.7.9l1.1-7.8c1.5-.3,2.9-.6,4.3-.7,1.4-.1,2.8-.2,4.4-.2,5.1,0,8.7.8,10.8,2.5,2.1,1.6,3.2,4.4,3.2,8.3v20.8h-9.1l-.2-2.1ZM205.5,84c0,1.2.4,2.2,1.2,3,.8.8,1.9,1.2,3.3,1.2s2.4-.4,3.2-1.2c.8-.8,1.2-1.8,1.2-3s-.4-2.1-1.2-2.9c-.8-.8-1.9-1.2-3.2-1.2s-2.4.4-3.3,1.2c-.8.8-1.2,1.7-1.2,2.9Z"/>
  <path class="st0" d="M254.4,94.2h-9.9v-18.7c0-3.1-1.3-4.6-3.9-4.6s-2.4.4-3.2,1.3c-.8.9-1.2,2.1-1.2,3.7v18.4h-9.9v-30.7h9.7v2.5h.3c.7-1,1.7-1.8,3.2-2.5,1.4-.6,3-.9,4.7-.9,3,0,5.5.9,7.3,2.7,1.8,1.8,2.8,4.2,2.8,7.2v21.7Z"/>
  <path class="st0" d="M255.9,78.8c0-3.2.6-6,1.9-8.4,1.3-2.4,3.1-4.3,5.4-5.7,2.3-1.4,4.9-2.1,7.8-2.1s3.3.2,4.7.7c1.4.5,2.6,1.1,3.6,1.9h.2v-13.9h9.9v42.9h-9.1l-.2-2.4h-.3c-.9,1-2.1,1.8-3.7,2.4-1.6.6-3.3.9-5.2.9-2.8,0-5.4-.7-7.6-2.1-2.3-1.4-4-3.3-5.4-5.8-1.3-2.5-2-5.3-2-8.5ZM265.1,78.8c0,2.4.7,4.3,2.2,5.8,1.4,1.5,3.3,2.3,5.5,2.3s4.1-.8,5.6-2.3c1.5-1.5,2.2-3.5,2.2-5.8s-.7-4.2-2.2-5.7c-1.5-1.5-3.3-2.3-5.6-2.3s-4.1.8-5.5,2.3c-1.4,1.5-2.2,3.4-2.2,5.7Z"/>
  <path class="st0" d="M307.2,62.6c3.6,0,6.8,1,9.4,3s4.5,4.6,5.4,7.9l-19.2,11.6c1.6,1.4,3.7,2.1,6.1,2.1s3.8-.4,5.8-1.3c2-.9,3.6-2.1,5-3.6v9.3c-1.4,1.1-3.1,2-5.1,2.7-2,.7-4.2,1-6.5,1-3.3,0-6.2-.7-8.7-2-2.5-1.4-4.5-3.3-5.9-5.7-1.4-2.4-2.1-5.3-2.1-8.5s.7-6,2.1-8.5c1.4-2.5,3.3-4.4,5.6-5.8s5.1-2.1,8.1-2.1ZM300,78.2v.7l11.3-6.8c-1.1-1.3-2.6-1.9-4.4-1.9s-3.7.8-5,2.3c-1.3,1.5-1.9,3.4-1.9,5.8Z"/>
  <path class="st0" d="M333.4,51.3v42.9h-9.9v-42.9h9.9Z"/>
  <g>
    <path class="st0" d="M334.9,91.8c0-.9.3-1.5.8-2.1.5-.5,1.3-.8,2.1-.8s1.6.3,2.1.8c.5.5.8,1.2.8,2.1s-.3,1.5-.8,2.1c-.5.5-1.3.8-2.1.8s-1.6-.3-2.1-.8-.8-1.2-.8-2.1Z"/>
    <path class="st0" d="M356.1,94.2h-4.9v-9.3c0-1.5-.6-2.3-1.9-2.3s-1.2.2-1.6.7c-.4.4-.6,1.1-.6,1.8v9.2h-4.9v-15.3h4.8v1.2h.2c.3-.5.9-.9,1.6-1.2.7-.3,1.5-.5,2.4-.5,1.5,0,2.7.5,3.7,1.4.9.9,1.4,2.1,1.4,3.6v10.8Z"/>
    <path class="st0" d="M362.3,72.8v21.4h-4.9v-21.4h4.9Z"/>
  </g>
</svg>