<?xml version="1.0" encoding="UTF-8"?>
<svg id="Laag_1" xmlns="http://www.w3.org/2000/svg" version="1.1" viewBox="0 0 440.7 144.9">
  <!-- Generator: Adobe Illustrator 29.4.0, SVG Export Plug-In . SVG Version: 2.1.0 Build 152)  -->
  <g>
    <polygon points="168.2 75.2 168.2 81.6 168.3 81.6 168.3 75.2 178.1 75.2 178.1 68.6 178 68.6 178 75.2 168.2 75.2"/>
    <polygon points="160.2 88.3 160.2 88.3 178.1 88.3 178.1 81.7 178 81.7 178 88.3 160.2 88.3"/>
    <polygon points="178 62.5 168.2 62.5 168.2 68.5 168.3 68.5 168.3 62.5 178.1 62.5 178.1 55.8 178 55.8 178 62.5"/>
    <rect x="168.3" y="81.6" width="9.8" height="0"/>
    <polygon points="178 55.8 178 55.8 160.1 55.8 160.1 88.3 160.2 88.3 160.2 55.8 178 55.8"/>
    <rect x="168.3" y="68.5" width="9.8" height="0"/>
    <polygon points="168.2 62.5 178 62.5 178 55.8 160.2 55.8 160.2 88.3 178 88.3 178 81.7 168.3 81.7 168.3 81.6 168.2 81.6 168.2 75.2 178 75.2 178 68.6 168.3 68.6 168.3 68.5 168.2 68.5 168.2 62.5"/>
    <rect x="239.7" y="75.8" width="0" height="12.5"/>
    <polygon points="231.4 55.8 231.4 55.8 223.3 55.8 223.3 88.3 223.4 88.3 223.4 55.8 231.4 55.8"/>
    <polygon points="239.7 68.5 239.7 55.8 247.8 55.8 247.8 55.8 239.7 55.8 239.7 68.4 231.5 68.4 231.5 68.5 239.7 68.5"/>
    <path d="M267.9,66.2c-1.6-1.2-4.3-1.9-8.2-1.9s-2.2,0-3.3.2c-1.1.1-2.1.3-3.3.5l-.8,5.9s0,0,0,0l.8-5.8c1.1-.2,2.2-.4,3.2-.5,1.1-.1,2.2-.2,3.3-.2,3.9,0,6.6.6,8.2,1.9,1.6,1.2,2.4,3.3,2.4,6.3v15.7h0v-15.8c0-3-.8-5-2.4-6.3Z"/>
    <path d="M257.9,72.8c2,0,3.6.4,4.9,1.3h0c-1.3-.9-2.9-1.3-4.9-1.3s-4.7.7-6.3,2.2c-1.6,1.5-2.4,3.4-2.4,5.9s0,0,0,0c0-2.4.8-4.4,2.4-5.9,1.6-1.5,3.7-2.2,6.3-2.2Z"/>
    <path d="M259.8,83.7c-1,0-1.8-.3-2.5-.9-.6-.6-.9-1.3-.9-2.3s0-.4,0-.6c0,.2,0,.4,0,.7,0,.9.3,1.7.9,2.3.6.6,1.5.9,2.5.9s1.8-.3,2.4-.9c.3-.3.6-.6.7-1-.2.4-.4.7-.7,1-.6.6-1.4.9-2.4.9Z"/>
    <path d="M279.6,88.3h0v-13.9c0-.9.2-1.6.5-2.2-.4.6-.5,1.4-.5,2.3v13.9Z"/>
    <path d="M285.7,64.3c-1.3,0-2.5.2-3.6.7-1.1.5-1.9,1.1-2.4,1.9h-.2v-1.9h-7.3c0,0,7.3,0,7.3,0v1.9h.2c.5-.8,1.3-1.4,2.4-1.9,1.1-.5,2.3-.7,3.6-.7,2.3,0,4.2.7,5.6,2.1,1.4,1.4,2.1,3.2,2.1,5.5v16.4h0v-16.4c0-2.3-.7-4.1-2.1-5.5-1.4-1.4-3.3-2.1-5.6-2.1Z"/>
    <polygon points="312.5 55.8 319.9 55.8 319.9 88.3 320 88.3 320 55.8 312.5 55.8 312.5 55.8"/>
    <path d="M305.9,64.4c1.3,0,2.5.2,3.6.6,1.1.4,2,.9,2.7,1.5h.2c0,0-.1,0-.1,0-.7-.6-1.7-1.1-2.7-1.5-1.1-.4-2.3-.6-3.6-.6-2.2,0-4.2.5-5.9,1.6-.9.5-1.6,1.2-2.3,1.9.7-.7,1.4-1.3,2.3-1.8,1.7-1,3.7-1.6,5.9-1.6Z"/>
    <path d="M303.1,81c-1.1-1.2-1.6-2.6-1.6-4.4s.5-3.2,1.6-4.3c0,0,0,0,0,0-1.1,1.1-1.6,2.6-1.6,4.3s.5,3.3,1.6,4.4c1.1,1.2,2.5,1.8,4.2,1.8s2.4-.3,3.4-1c-.9.6-2,1-3.3,1s-3.1-.6-4.2-1.8Z"/>
    <path d="M310.7,87.9c.8-.4,1.5-.9,2-1.5h0c-.5.6-1.1,1.1-1.9,1.5Z"/>
    <polygon points="345.8 55.8 353.1 55.8 353.1 88.3 353.2 88.3 353.2 55.8 345.8 55.8 345.8 55.8"/>
    <path d="M356.6,84.2c-.7,0-1.2.2-1.6.6-.4.4-.6.9-.6,1.6s.2,1.2.6,1.6c.4.4.9.6,1.6.6s1.2-.2,1.6-.6c.4-.4.6-.9.6-1.6s-.2-1.2-.6-1.6c-.4-.4-.9-.6-1.6-.6Z"/>
    <path d="M366.7,76.3c-.7,0-1.3.1-1.8.4-.5.2-.9.5-1.2.9h-.1v-.9h-3.7v11.6h3.7v-6.9c0-.6.1-1,.4-1.4.3-.3.7-.5,1.2-.5,1,0,1.5.6,1.5,1.7v7.1h3.7v-8.2c0-1.1-.3-2-1-2.7-.7-.7-1.6-1-2.8-1Z"/>
    <rect x="371.4" y="72.1" width="3.7" height="16.2"/>
    <path d="M195.7,84.2c-.4-.6-.7-1.2-.9-1.9,0,0,0-.2-.1-.3-.8.5-1.8.8-2.9.8s-.6,0-.9,0c-1.2-.2-2.2-.8-3-1.6-1.1-1.2-1.7-2.6-1.7-4.5s.6-3.3,1.7-4.5c1.1-1.1,2.4-1.7,4.1-1.7,1,0,1.9.3,2.6.7,0,0,0-.2,0-.2.3-.7.6-1.4,1-2,0-.1.2-.3.3-.4.7-1.1,1.4-2,2.3-2.8-1.9-1-4-1.6-6.5-1.6s-4.6.5-6.5,1.6c-1.9,1.1-3.4,2.5-4.4,4.4-1.1,1.9-1.6,4-1.6,6.5s.5,4.6,1.6,6.5c1.1,1.9,2.6,3.4,4.4,4.4,1.9,1.1,4.1,1.6,6.5,1.6s4.7-.5,6.6-1.6c0,0,0,0,0,0-.9-.9-1.7-1.8-2.4-2.9,0-.1-.2-.3-.3-.4Z"/>
    <path d="M215.6,65.9c-1.9-1.1-4.1-1.6-6.6-1.6s-4.7.5-6.6,1.6c-.7.4-1.4.9-2,1.4-1,.9-1.9,1.8-2.5,3-.5.9-.9,1.9-1.2,2.9-.3,1.1-.4,2.3-.4,3.5s.2,2.5.5,3.6c.3,1,.7,2,1.2,2.8.7,1.2,1.6,2.2,2.6,3.1.6.5,1.2,1,1.9,1.3,1.9,1.1,4.1,1.6,6.6,1.6s4.7-.5,6.6-1.6c1.9-1.1,3.4-2.5,4.5-4.4,1.1-1.9,1.6-4,1.6-6.4s-.5-4.6-1.6-6.4c-1.1-1.9-2.6-3.3-4.5-4.4ZM213.2,81.1c-1.1,1.2-2.5,1.8-4.2,1.8s-3.1-.6-4.2-1.8c-.3-.3-.6-.7-.8-1.1-.6-1-.9-2.1-.9-3.4s.3-2.4.8-3.3c.2-.4.5-.7.8-1.1,1.1-1.1,2.5-1.7,4.2-1.7s3.1.6,4.2,1.7c1.1,1.1,1.7,2.6,1.7,4.4s-.6,3.3-1.7,4.5Z"/>
    <rect x="231.4" y="55.8" width="0" height="12.6"/>
    <polygon points="231.4 75.7 231.4 88.3 223.4 88.3 223.4 88.3 231.5 88.3 231.5 75.8 239.7 75.8 239.7 75.7 231.4 75.7"/>
    <polygon points="247.8 88.3 239.7 88.3 239.7 88.3 247.8 88.3 247.8 55.8 247.8 55.8 247.8 88.3"/>
    <polygon points="247.8 55.8 239.7 55.8 239.7 68.5 231.5 68.5 231.5 68.4 231.4 68.4 231.4 55.8 223.4 55.8 223.4 88.3 231.4 88.3 231.4 75.7 239.7 75.7 239.7 75.8 239.7 75.8 239.7 88.3 247.8 88.3 247.8 55.8"/>
    <path d="M259.8,77.5c-1,0-1.8.3-2.5.9-.5.4-.8,1-.9,1.6.1-.6.4-1.1.9-1.6.6-.6,1.5-.9,2.5-.9s1.8.3,2.4.9c.6.6.9,1.3.9,2.2s0,.9-.2,1.2c.2-.4.2-.8.2-1.3,0-.9-.3-1.6-.9-2.2-.6-.6-1.4-.9-2.4-.9Z"/>
    <path d="M263.2,86.7h-.2c-.6.7-1.3,1.3-2.3,1.7-1,.4-2,.6-3.3.6s-3-.3-4.3-1c-1.3-.7-2.3-1.7-3-2.9-.7-1.2-1.1-2.7-1.1-4.2,0,0,0,0,0,0,0,1.6.4,3,1.1,4.3.7,1.2,1.7,2.2,3,2.9,1.3.7,2.7,1,4.3,1s2.3-.2,3.3-.6c1-.4,1.7-1,2.3-1.7h.2l.2,1.6h6.9s-6.8,0-6.8,0l-.2-1.6Z"/>
    <path d="M262.8,73.1c0-1.1-.3-1.9-1-2.3-.7-.5-1.9-.7-3.5-.7s-2.1,0-3.2.3c-1.1.2-2,.4-2.8.7h0c.7-.2,1.7-.4,2.8-.6,1.1-.2,2.2-.3,3.2-.3,1.6,0,2.8.2,3.5.7.7.5,1,1.3,1,2.3v.9s0,0,0,0v-.9Z"/>
    <path d="M267.9,66.3c-1.6-1.2-4.3-1.9-8.2-1.9s-2.2,0-3.3.2c-1.1.1-2.1.3-3.2.5l-.8,5.8c.7-.3,1.7-.5,2.8-.7,1.1-.2,2.2-.3,3.2-.3,1.6,0,2.8.2,3.5.7.7.5,1,1.3,1,2.3v.9s0,0,0,0h0c-1.3-.8-2.9-1.2-4.9-1.2s-4.7.7-6.3,2.2c-1.6,1.5-2.4,3.4-2.4,5.9,0,1.6.4,3,1.1,4.2.7,1.2,1.7,2.2,3,2.9,1.3.7,2.7,1,4.3,1s2.3-.2,3.3-.6c1-.4,1.7-1,2.3-1.7h.2l.2,1.6h6.8v-15.7c0-2.9-.8-5-2.4-6.3ZM262.9,81.8c-.2.4-.4.7-.7,1-.6.6-1.4.9-2.4.9s-1.8-.3-2.5-.9c-.6-.6-.9-1.3-.9-2.3s0-.4,0-.7c.1-.6.4-1.2.9-1.6.6-.6,1.5-.9,2.5-.9s1.8.3,2.4.9c.6.6.9,1.3.9,2.2s0,.9-.2,1.3Z"/>
    <path d="M285.9,74.1c0-2.3-1-3.5-3-3.5s-1.8.3-2.4,1c-.2.2-.3.4-.4.6.1-.2.2-.4.4-.5.6-.7,1.4-1,2.4-1,2,0,2.9,1.2,2.9,3.5v14.2h7.5s-7.4,0-7.4,0v-14.2Z"/>
    <polygon points="272.2 65.1 272.1 65.1 272.1 88.3 279.6 88.3 279.6 88.3 272.2 88.3 272.2 65.1"/>
    <path d="M291.2,66.4c-1.4-1.4-3.2-2.1-5.6-2.1s-2.5.2-3.6.7c-1.1.5-1.9,1.1-2.4,1.9h-.2v-1.9h-7.3v23.2h7.4v-13.9c0-.9.2-1.6.5-2.3.1-.2.2-.4.4-.6.6-.7,1.4-1,2.4-1,2,0,3,1.2,3,3.5v14.2h7.4v-16.4c0-2.3-.7-4.1-2.1-5.5Z"/>
    <path d="M305.9,89c-2.2,0-4.1-.5-5.8-1.6-1.7-1.1-3.1-2.5-4.1-4.4-1-1.9-1.5-4-1.5-6.4s.5-4.5,1.5-6.4c.5-.9,1.1-1.7,1.7-2.4-.7.7-1.3,1.6-1.8,2.5-1,1.8-1.5,4-1.5,6.4s.5,4.6,1.5,6.4c1,1.9,2.3,3.3,4.1,4.4,1.7,1.1,3.6,1.6,5.8,1.6s2.8-.2,4-.7c.3-.1.6-.3.9-.4-.3.1-.5.2-.8.4-1.2.5-2.5.7-4,.7Z"/>
    <rect x="312.4" y="55.8" width="0" height="10.5"/>
    <path d="M312.9,86.4h-.2s0,0,0,0h.2l.2,1.8h6.9s-6.8,0-6.8,0l-.2-1.8Z"/>
    <path d="M311.5,72.2c-1.1-1.1-2.5-1.7-4.2-1.7s-3.1.6-4.2,1.7c0,0,0,0,0,0,1.1-1.1,2.4-1.7,4.1-1.7s3.1.6,4.2,1.7c1.1,1.1,1.7,2.6,1.7,4.3s-.6,3.3-1.7,4.4c-.3.3-.6.5-.9.8.3-.2.7-.5.9-.8,1.1-1.2,1.7-2.6,1.7-4.4s-.6-3.2-1.7-4.3Z"/>
    <path d="M312.5,55.8v10.5h0c0,0-.2,0-.2,0-.7-.6-1.7-1.1-2.7-1.5-1.1-.4-2.3-.6-3.6-.6-2.2,0-4.2.5-5.9,1.6-.8.5-1.6,1.1-2.3,1.8-.7.7-1.2,1.5-1.7,2.4-1,1.8-1.5,4-1.5,6.4s.5,4.6,1.5,6.4c1,1.9,2.4,3.3,4.1,4.4,1.7,1.1,3.6,1.6,5.8,1.6s2.8-.2,4-.7c.3-.1.6-.2.8-.4.8-.4,1.4-.9,1.9-1.5h0s0,0,0,0h.2l.2,1.8h6.8v-32.4h-7.4ZM311.5,81c-.3.3-.6.6-.9.8-.9.7-2.1,1-3.4,1s-3.1-.6-4.2-1.8c-1.1-1.2-1.6-2.6-1.6-4.4s.5-3.2,1.6-4.3c0,0,0,0,0,0,0,0,0,0,0,0,1.1-1.1,2.5-1.7,4.2-1.7s3.1.6,4.2,1.7c1.1,1.1,1.7,2.6,1.7,4.3s-.6,3.3-1.7,4.4Z"/>
    <path d="M334.5,83.1c-1.8,0-3.4-.5-4.6-1.6l14.5-8.8c-.7-2.5-2.1-4.5-4.1-6-2-1.5-4.4-2.2-7.1-2.2s-4.4.5-6.1,1.6c-.4.2-.8.5-1.2.8-1.2.9-2.2,2.1-3,3.5-1,1.9-1.6,4-1.6,6.4s.5,4.6,1.6,6.4c1.1,1.8,2.6,3.3,4.5,4.3,1.9,1,4.1,1.5,6.6,1.5s3.4-.3,4.9-.8c1.5-.5,2.8-1.2,3.8-2v-6.9c-1,1.1-2.3,2-3.7,2.6,0,0,0,0,0,0,0,0,0,0,0,0-1.5.7-3,1-4.4,1ZM327.7,76.9v-.5c0-1.8.5-3.3,1.5-4.4.5-.6,1.1-1,1.7-1.3.7-.3,1.4-.5,2.2-.5,1.4,0,2.5.5,3.3,1.5l-8.6,5.2h0s0,0,0,0Z"/>
    <polygon points="345.8 55.8 345.6 55.8 345.6 88.3 353.1 88.3 353.1 88.3 345.8 88.3 345.8 55.8"/>
    <rect x="345.8" y="55.8" width="7.4" height="32.4"/>
  </g>
  <path d="M116,35.4h-26.7c-13,0-23.7,10.7-23.7,23.7v26.7c0,13,10.7,23.7,23.7,23.7h26.7c13,0,23.7-10.7,23.7-23.7v-26.7c0-13-10.7-23.7-23.7-23.7ZM111.8,89.1s.7,2.2,3.4,5.5c.2.2.4.4.5.7,0,0,0,0,0,0h0c.7.9,1.3,1.7,1.5,2.2.6,1.5-.6,2.6-1.9,2.6-.4,0-.9-.2-1.3-.5-1.1-1-2.6-3.1-3.5-4.4-.9-1.2-1.7-2.6-2.5-3.9-3.3-5.6-6.2-12.4-8.1-18.2-1.8-5.5-2-9.1-2.5-14.8-.2,1-1.5,7.6-.5,15.7.7,5.8,2.5,12.3,6.6,18.1,0,0,0,0,0,0,0,0,0,0,0,0-1.7-.2-5.4-1.1-8.7-2.7-.5-.2-1-.5-1.4-.8-.3-.2-.6-.4-.9-.6-.2-.1-.3-.2-.5-.3-.4-.3-.7-.5-1.1-.8,0,0-.1-.1-.2-.2-.9-.7-1.8-1.6-2.7-2.5,0,0-.2-.2-.2-.3-.4-.5-.8-1-1.1-1.6,0,0,0-.2-.1-.2-.4-.6-.7-1.3-1-1.9,0,0,0,0,0-.1-.4-1-.8-2-1.1-3.1-.7-3.1-.7-6.8.5-11.2.1-.5.3-1.1.5-1.7,0,0,0,0,0-.1,0,0,0,0,0,0,.3-.9,1.8-5.4,6-10.1,0,0,.1-.2.2-.2.4-.4.8-.8,1.2-1.2.1-.1.3-.3.4-.4.5-.5,1-1,1.6-1.4,1.2-1,2.6-1.9,4.1-2.8,0,0,0,0,0,0,0,0,0,0,0,0,0,0,2.7.8,6.1,2.5,4.6,2.3,10.5,6.1,13.8,11.6,3.8,6.5,3.7,15.4-7.1,27h0Z"/>
</svg>